name Walk2.mot
datacolumns 19
datarows 15
range 2.08300000 2.09700000
endheader

                time	   L_ground_force_vx	   L_ground_force_vy	   L_ground_force_vz	   L_ground_force_px	   L_ground_force_py	   L_ground_force_pz	   R_ground_force_vx	   R_ground_force_vy	   R_ground_force_vz	   R_ground_force_px	   R_ground_force_py	   R_ground_force_pz	   L_ground_torque_x	   L_ground_torque_y	   L_ground_torque_z	   R_ground_torque_x	   R_ground_torque_y	   R_ground_torque_z	
          2.08300000	         -0.00420384	          0.00574061	         -0.00291431	         -0.00011145	          0.00000000	         -0.00007197	        -29.74445863	        859.55811674	        -65.04146096	          0.39764656	          0.00000000	          0.11115216	          0.00000000	         -0.00001103	          0.00000000	          0.00000000	          7.16671080	          0.00000000	
          2.08400000	         -0.00487543	          0.00343455	         -0.00264314	         -0.00010423	          0.00000000	         -0.00006756	        -29.44028013	        858.14531593	        -64.85385747	          0.39803110	          0.00000000	          0.11126387	          0.00000000	         -0.00001020	          0.00000000	          0.00000000	          7.11325513	          0.00000000	
          2.08500000	         -0.00547149	          0.00131157	         -0.00238504	         -0.00009723	          0.00000000	         -0.00006327	        -29.14003345	        856.76385718	        -64.66179323	          0.39841231	          0.00000000	          0.11137377	          0.00000000	         -0.00000941	          0.00000000	          0.00000000	          7.06034176	          0.00000000	
          2.08600000	         -0.00599620	         -0.00063585	         -0.00213987	         -0.00009046	          0.00000000	         -0.00005911	        -28.84350515	        855.41356318	        -64.46551628	          0.39879017	          0.00000000	          0.11148188	          0.00000000	         -0.00000864	          0.00000000	          0.00000000	          7.00794619	          0.00000000	
          2.08700000	         -0.00645364	         -0.00241529	         -0.00190747	         -0.00008392	          0.00000000	         -0.00005508	        -28.55048365	        854.09426742	        -64.26529098	          0.39916463	          0.00000000	          0.11158821	          0.00000000	         -0.00000791	          0.00000000	          0.00000000	          6.95604289	          0.00000000	
          2.08800000	         -0.00684779	         -0.00403431	         -0.00168761	         -0.00007762	          0.00000000	         -0.00005119	        -28.26075986	        852.80581178	        -64.06139744	          0.39953568	          0.00000000	          0.11169279	          0.00000000	         -0.00000721	          0.00000000	          0.00000000	          6.90460537	          0.00000000	
          2.08900000	         -0.00718256	         -0.00550043	         -0.00148007	         -0.00007157	          0.00000000	         -0.00004743	        -27.97412729	        851.54804422	        -63.85413058	          0.39990327	          0.00000000	          0.11179564	          0.00000000	         -0.00000654	          0.00000000	          0.00000000	          6.85360629	          0.00000000	
          2.09000000	         -0.00746172	         -0.00682111	         -0.00128458	         -0.00006575	          0.00000000	         -0.00004381	        -27.69038200	        850.32081685	        -63.64379903	          0.40026739	          0.00000000	          0.11189677	          0.00000000	         -0.00000590	          0.00000000	          0.00000000	          6.80301780	          0.00000000	
          2.09100000	         -0.00768895	         -0.00800373	         -0.00110086	         -0.00006019	          0.00000000	         -0.00004033	        -27.40932233	        849.12398429	        -63.43072371	          0.40062802	          0.00000000	          0.11199620	          0.00000000	         -0.00000530	          0.00000000	          0.00000000	          6.75281170	          0.00000000	
          2.09200000	         -0.00786781	         -0.00905555	         -0.00092860	         -0.00005487	          0.00000000	         -0.00003700	        -27.13074882	        847.95740208	        -63.21523627	          0.40098512	          0.00000000	          0.11209396	          0.00000000	         -0.00000473	          0.00000000	          0.00000000	          6.70295962	          0.00000000	
          2.09300000	         -0.00800173	         -0.00998372	         -0.00076748	         -0.00004979	          0.00000000	         -0.00003381	        -26.85446442	        846.82092488	        -62.99767728	          0.40133870	          0.00000000	          0.11219007	          0.00000000	         -0.00000418	          0.00000000	          0.00000000	          6.65343305	          0.00000000	
          2.09400000	         -0.00809402	         -0.01079525	         -0.00061716	         -0.00004496	          0.00000000	         -0.00003077	        -26.58027468	        845.71440447	        -62.77839457	          0.40168873	          0.00000000	          0.11228454	          0.00000000	         -0.00000367	          0.00000000	          0.00000000	          6.60420326	          0.00000000	
          2.09500000	         -0.00814789	         -0.01149698	         -0.00047728	         -0.00004037	          0.00000000	         -0.00002786	        -26.30798821	        844.63768806	        -62.55774167	          0.40203522	          0.00000000	          0.11237741	          0.00000000	         -0.00000319	          0.00000000	          0.00000000	          6.55524130	          0.00000000	
          2.09600000	         -0.00816638	         -0.01209561	         -0.00034750	         -0.00003601	          0.00000000	         -0.00002510	        -26.03741696	        843.59061702	        -62.33607628	          0.40237814	          0.00000000	          0.11246869	          0.00000000	         -0.00000274	          0.00000000	          0.00000000	          6.50651802	          0.00000000	
          2.09700000	         -0.00815244	         -0.01259763	         -0.00022743	         -0.00003189	          0.00000000	         -0.00002248	        -25.76837652	        842.57302626	        -62.11375898	          0.40271752	          0.00000000	          0.11255840	          0.00000000	         -0.00000231	          0.00000000	          0.00000000	          6.45800426	          0.00000000	
